#N canvas 2 62 1265 944 10;
#X obj 295 232 dac~;
#X obj 285 44 hsl 128 15 0 1 0 0 empty empty Parameter_B -2 -8 0 10
-262144 -1 -1 0 1;
#X obj 429 44 hsl 128 15 0 1 0 0 empty empty Parameter_C -2 -8 0 10
-262144 -1 -1 0 1;
#X obj 573 44 hsl 128 15 0 1 0 0 empty empty Parameter_D -2 -8 0 10
-262144 -1 -1 0 1;
#X obj 579 65 r Channel-D;
#X obj 436 65 r Channel-C;
#X obj 295 65 r Channel-B;
#X obj 140 44 hsl 128 15 0 1 0 0 empty empty Parameter_A -2 -8 0 10
-262144 -1 -1 0 1;
#X obj 147 65 r Channel-A;
#X text 72 4 OWL Puredata Template;
#X obj 294 181 adc~;
#X obj 281 112 + 0;
#X obj 136 111 + 0;
#X obj 137 90 * 1;
#X obj 282 91 * 1;
#X obj 426 90 * 1;
#X obj 425 111 + 0;
#X obj 570 90 * 1;
#X obj 568 111 + 0;
#X obj 719 44 hsl 128 15 0 1 0 0 empty empty Parameter_E -2 -8 0 10
-262144 -1 -1 0 1;
#X obj 716 90 * 1;
#X obj 714 111 + 0;
#X obj 725 65 r Channel-E;
#X connect 1 0 14 0;
#X connect 2 0 15 0;
#X connect 3 0 17 0;
#X connect 4 0 17 0;
#X connect 5 0 15 0;
#X connect 6 0 14 0;
#X connect 7 0 13 0;
#X connect 8 0 13 0;
#X connect 10 0 0 0;
#X connect 10 1 0 1;
#X connect 13 0 12 0;
#X connect 14 0 11 0;
#X connect 15 0 16 0;
#X connect 17 0 18 0;
#X connect 19 0 20 0;
#X connect 20 0 21 0;
#X connect 22 0 20 0;
