#N canvas 0 66 1920 1014 10;
#X obj 533 231 osc~;
#X obj 214 395 dac~;
#X obj 87 127 r GainL @owl A;
#X obj 218 127 adc~;
#X obj 168 245 *~;
#X obj 318 127 r GainR @owl B;
#X obj 275 245 *~;
#X obj 532 290 *~;
#X obj 686 127 r OscGain @owl D;
#X obj 863 176 loadbang;
#X obj 863 198 metro;
#X obj 863 220 f 0;
#X obj 902 220 + 1;
#X obj 863 264 mod 4096;
#X obj 863 286 / 4096;
#X obj 926 176 / 4096;
#X obj 735 330 * 6.283;
#X text 788 329 2 * pi;
#X obj 838 127 r Rate @owl E 4000 10 1000;
#X obj 888 393 s Ramp @owl G;
#X obj 735 394 s Sine @owl F -1 1 0;
#X obj 1207 127 r Button2 @owl B2;
#X obj 1362 127 r Button3 @owl B3;
#X obj 1064 127 r Button1 @owl B1;
#X obj 1511 127 r Button4 @owl B4;
#X obj 735 361 sin;
#X obj 199 342 +~;
#X obj 259 342 +~;
#X obj 493 127 r Osc @owl C 40 100 60;
#X obj 533 178 mtof;
#X obj 1207 192 s Button5 @owl B5;
#X obj 1362 191 s Button6 @owl B6;
#X connect 0 0 7 0;
#X connect 2 0 4 0;
#X connect 3 0 4 1;
#X connect 3 1 6 0;
#X connect 4 0 26 0;
#X connect 5 0 6 1;
#X connect 6 0 27 0;
#X connect 7 0 26 1;
#X connect 7 0 27 1;
#X connect 8 0 7 1;
#X connect 9 0 10 0;
#X connect 10 0 11 0;
#X connect 11 0 12 0;
#X connect 12 0 13 0;
#X connect 12 0 11 1;
#X connect 13 0 14 0;
#X connect 14 0 16 0;
#X connect 14 0 19 0;
#X connect 15 0 10 1;
#X connect 16 0 25 0;
#X connect 18 0 15 0;
#X connect 21 0 30 0;
#X connect 22 0 31 0;
#X connect 25 0 20 0;
#X connect 26 0 1 0;
#X connect 27 0 1 1;
#X connect 28 0 29 0;
#X connect 29 0 0 0;
